# xmcd
#
# Track frame offsets: 
#        150
#        18112
#        31204
#        43589
#        53764
#        66415
#        80691
#        92924
#        114404
#        126368
#        138918
#        150526
#        160621
#        169597
#        182606
#        199897
#        211800
#        222441
#        234524
#        245673
#        258555
#        271282
#        282588
#        296544
#        307155
#        317349
#
# Disc length: 4421 seconds
#
# Revision: 0
# Processed by: cddbd v1.5.2PL0 Copyright (c) Steve Scherf et al.
# Submitted via: ExactAudioCopyFreeDBPlugin 1.0
#
DISCID=7a11431a
DTITLE=Connie Francis - 珍愛世紀情歌
DYEAR=1950
DGENRE=Pop
TTITLE0=April Love
TTITLE1=Tennessee Waltz
TTITLE2=Moon River
TTITLE3=La Vie En Rose
TTITLE4=Frankie
TTITLE5=It's So Easy
TTITLE6=Heartbeat
TTITLE7=Torn Between Two Lovers
TTITLE8=Breakin' In A Brand New Broken Heart
TTITLE9=Besame Mucho
TTITLE10=Everybody's Somebody's Fool
TTITLE11=Stupid Cupid
TTITLE12=Many Tears Ago
TTITLE13=Quiereme Mucho
TTITLE14=Hurt
TTITLE15=Where The Boys Are
TTITLE16=Lipstick On Your
TTITLE17=Vacation
TTITLE18=My Heart Has A Mind Of Its Own
TTITLE19=I Can’t Stop Loving You
TTITLE20=Together
TTITLE21=My Happiness
TTITLE22=Don't Break The Heart That Loves You
TTITLE23=Among My Souvenirs
TTITLE24=Who’s Sorry Now
TTITLE25=Are You Lonesome Tonight
EXTD=
EXTT0=
EXTT1=
EXTT2=
EXTT3=
EXTT4=
EXTT5=
EXTT6=
EXTT7=
EXTT8=
EXTT9=
EXTT10=
EXTT11=
EXTT12=
EXTT13=
EXTT14=
EXTT15=
EXTT16=
EXTT17=
EXTT18=
EXTT19=
EXTT20=
EXTT21=
EXTT22=
EXTT23=
EXTT24=
EXTT25=
PLAYORDER=
